<?xml version="1.0" standalone="no"?>
<!DOCTYPE svg PUBLIC "-//W3C//DTD SVG 20010904//EN"
 "http://www.w3.org/TR/2001/REC-SVG-20010904/DTD/svg10.dtd">
<svg version="1.0" xmlns="http://www.w3.org/2000/svg"
 width="1011.000000pt" height="897.000000pt" viewBox="0 0 1011.000000 897.000000"
 preserveAspectRatio="xMidYMid meet">

<g transform="translate(0.000000,897.000000) scale(0.100000,-0.100000)"
fill="#000000" stroke="none">
<path d="M5325 8253 c-16 -2 -75 -15 -130 -29 -184 -46 -336 -118 -405 -193
-21 -23 -55 -46 -85 -56 -144 -52 -405 -439 -417 -621 -3 -44 -29 -61 -153
-99 -172 -53 -265 -107 -330 -193 -19 -25 -35 -42 -35 -38 0 12 -343 -176
-560 -307 -769 -465 -1519 -1078 -2198 -1797 -91 -96 -202 -220 -247 -275
-327 -398 -513 -770 -581 -1161 -23 -132 -25 -169 -21 -324 5 -199 27 -329 83
-500 71 -214 221 -479 381 -673 159 -195 295 -327 325 -319 17 4 -10 -38 -39
-62 -43 -37 -61 -98 -38 -133 9 -13 32 -34 51 -45 26 -15 33 -25 28 -37 -4 -9
-9 -33 -12 -54 -4 -33 0 -42 32 -72 40 -37 165 -82 266 -94 46 -6 72 -19 153
-74 131 -90 227 -137 274 -136 45 1 95 27 99 53 1 10 -1 15 -4 11 -4 -4 -7
-11 -7 -16 0 -5 -3 -9 -7 -9 -5 0 -8 3 -7 6 1 9 -34 33 -49 34 -7 0 -11 -4 -8
-8 2 -4 -4 -8 -14 -8 -13 0 -16 4 -10 12 10 11 3 24 -12 24 -5 0 -6 -5 -2 -11
4 -8 0 -8 -15 0 -12 7 -25 9 -30 6 -5 -3 -11 1 -14 7 -3 10 -7 10 -19 1 -12
-11 -18 -9 -33 7 -9 10 -15 26 -12 35 6 13 42 21 71 16 5 -1 4 4 -3 13 -17 20
-5 24 59 22 56 -2 103 -24 114 -52 3 -8 14 -14 23 -12 10 2 17 -2 15 -9 -3
-16 14 -17 23 -3 5 8 11 7 20 0 11 -9 22 -2 52 31 21 23 46 55 55 70 10 16 23
29 28 29 6 0 8 5 4 11 -5 8 -9 8 -14 -1 -6 -9 -11 -7 -19 8 -9 18 -9 21 3 16
11 -4 13 0 9 15 -7 27 -15 32 -33 19 -12 -8 -12 -9 2 -4 15 4 16 3 6 -14 -10
-15 -9 -23 7 -41 15 -17 16 -21 5 -17 -11 4 -16 -1 -17 -15 -1 -11 -7 -25 -13
-31 -8 -8 -9 -4 -2 14 11 32 5 60 -12 54 -29 -11 -162 94 -180 142 -3 8 -10
14 -16 14 -6 0 -9 4 -6 8 12 19 -20 84 -61 126 -23 25 -43 52 -43 60 0 9 -5
16 -12 16 -6 0 -9 3 -5 6 3 4 -1 21 -10 38 -9 17 -20 42 -24 56 -6 18 -8 10
-5 -29 l3 -54 -38 43 c-21 23 -41 56 -45 74 -3 17 -10 34 -15 37 -5 3 -17 30
-27 60 l-19 54 -6 -75 c-4 -41 -5 -99 -3 -127 2 -29 0 -53 -5 -53 -12 0 -31
39 -24 50 3 5 -3 17 -14 27 -11 9 -18 19 -16 23 2 3 -5 17 -16 30 -12 17 -19
20 -19 10 0 -13 -1 -13 -10 0 -5 8 -11 12 -15 9 -3 -3 6 -22 19 -41 31 -46 40
-101 31 -189 -5 -53 -10 -69 -21 -65 -7 3 -16 1 -19 -4 -4 -6 -3 -11 2 -11 4
-1 17 -3 28 -4 11 -2 38 -11 60 -20 22 -10 53 -19 68 -20 32 -3 107 -73 107
-100 0 -9 -7 -31 -14 -50 -14 -32 -17 -34 -41 -25 -14 5 -50 25 -80 45 -30 19
-58 36 -63 37 -4 2 -7 13 -7 25 -1 12 -5 26 -10 30 -4 4 -5 3 -2 -3 8 -13 -23
-29 -32 -17 -3 4 -15 8 -26 7 -11 0 -26 4 -32 9 -9 6 -13 6 -13 -2 0 -6 -5
-11 -11 -11 -6 0 -8 7 -5 16 3 9 1 14 -5 12 -6 -2 -10 -7 -9 -12 3 -15 -23
-24 -53 -19 -28 6 -38 23 -12 23 8 0 16 5 16 10 1 6 3 15 4 20 1 6 3 19 4 31
1 15 6 19 16 15 48 -19 50 -19 24 10 -41 46 -67 88 -62 102 3 7 -1 10 -11 6
-10 -4 -16 -1 -16 8 0 20 -37 41 -44 25 -3 -7 -3 -1 0 12 5 17 3 21 -7 16 -9
-6 -11 -2 -7 13 8 29 1 28 -30 -5 -15 -16 -23 -21 -19 -11 4 12 2 15 -9 11 -7
-3 -14 -1 -14 3 -1 5 -14 24 -29 42 -20 24 -31 30 -36 21 -6 -8 -4 -10 5 -4 9
5 11 4 6 -4 -4 -6 -12 -9 -17 -5 -5 3 -6 10 -3 16 4 6 2 8 -3 5 -6 -4 -17 1
-24 11 -11 14 -11 15 0 5 14 -12 41 -7 41 9 0 5 -5 6 -12 2 -7 -5 -9 -2 -5 9
4 11 2 14 -9 10 -10 -4 -12 0 -7 13 4 10 2 15 -4 11 -11 -7 -10 72 1 94 4 8
-2 3 -13 -10 -12 -13 -21 -19 -21 -14 0 5 14 22 30 38 17 16 30 25 30 19 0 -5
4 -3 9 5 5 8 23 14 40 14 16 0 28 4 25 9 -3 4 5 8 18 8 13 0 46 3 74 6 44 6
55 3 73 -15 25 -25 27 -20 5 15 -9 13 -39 34 -65 45 -28 12 -46 26 -42 32 3 6
1 7 -6 3 -13 -8 -56 3 -47 12 12 12 -209 126 -225 116 -5 -3 -8 0 -7 8 2 7 -6
13 -19 13 -12 0 -26 5 -30 9 -5 5 -2 6 6 1 10 -6 12 -4 7 4 -5 7 -15 10 -23 7
-8 -3 -11 -1 -8 4 8 13 -104 62 -124 55 -9 -3 -12 -3 -8 1 6 6 -86 76 -105 80
-5 1 -13 2 -18 3 -6 0 -15 13 -21 28 -15 40 15 65 83 70 40 3 74 -4 138 -26
47 -16 128 -44 180 -61 177 -61 229 -83 223 -93 -4 -6 0 -8 11 -4 10 4 23 -1
33 -13 9 -10 20 -17 25 -14 4 3 33 -7 65 -22 32 -15 78 -35 103 -45 25 -10 38
-18 30 -19 -8 0 3 -9 25 -19 51 -23 95 -67 102 -102 3 -19 10 -26 20 -22 7 3
13 2 12 -3 -1 -5 0 -16 3 -24 13 -35 39 -139 48 -194 5 -33 12 -62 15 -64 17
-18 -16 165 -50 273 -14 44 -25 88 -25 98 0 9 -8 17 -17 18 -11 0 -13 3 -5 6
6 2 9 9 6 14 -3 6 -1 15 4 22 6 8 5 23 -4 42 -7 17 -13 24 -14 16 0 -8 -3 -12
-6 -8 -9 9 -17 214 -10 251 3 17 19 45 36 63 20 21 25 33 17 36 -9 4 -9 6 1 6
14 1 33 -39 24 -53 -3 -5 0 -6 6 -2 11 7 20 -18 41 -112 5 -23 9 -45 9 -48 0
-3 4 -9 8 -12 4 -4 4 0 0 8 -4 8 -1 6 6 -4 7 -11 26 -34 41 -52 16 -18 26 -38
23 -43 -4 -5 -1 -13 5 -17 8 -4 9 -3 5 4 -4 7 -4 12 -1 12 12 0 46 -90 39
-103 -4 -6 -3 -9 1 -4 11 10 58 -100 49 -115 -4 -6 -3 -8 3 -5 6 4 14 0 17 -9
4 -9 2 -13 -5 -8 -7 4 -10 1 -7 -7 3 -8 10 -15 16 -15 23 -3 24 -4 12 -19 -9
-10 -9 -15 -1 -16 6 -1 15 -2 19 -3 4 0 27 -16 50 -34 37 -29 40 -36 31 -54
-9 -16 -13 -18 -19 -7 -5 7 -6 17 -4 21 3 4 -1 8 -8 8 -10 0 -9 3 2 11 13 9
12 10 -3 5 -10 -3 -16 -2 -13 3 3 4 -3 16 -14 26 -26 23 -25 7 0 -25 11 -14
20 -29 20 -33 0 -4 10 -23 23 -41 18 -28 24 -31 35 -20 13 15 16 28 4 20 -4
-2 -14 -1 -20 3 -10 6 -10 11 2 20 12 10 18 7 31 -19 13 -24 14 -35 5 -44 -8
-8 -9 -6 -4 8 5 13 4 17 -4 12 -14 -8 -16 -33 -4 -38 9 -3 108 -152 104 -155
-1 -2 6 -11 16 -21 9 -10 23 -27 30 -38 7 -10 -1 8 -19 41 -17 33 -39 69 -49
80 -20 22 -53 85 -45 85 2 0 13 -17 24 -38 34 -66 45 -71 161 -73 103 -2 107
-1 201 39 52 23 115 44 140 48 52 8 107 34 133 63 11 12 31 21 45 21 15 0 35
9 44 21 23 26 144 82 159 73 7 -4 8 -3 4 4 -4 7 -3 12 3 12 5 0 33 21 63 46
29 26 69 53 88 61 42 18 168 91 191 110 9 8 26 15 37 16 11 0 18 5 16 9 -3 5
2 11 11 14 14 6 15 28 12 188 -2 99 -1 204 4 231 8 50 29 534 29 675 1 342 -8
1109 -13 1117 -8 13 12 192 24 215 5 10 17 18 25 18 12 0 15 11 13 53 -4 89
46 141 144 149 31 3 57 1 57 -4 0 -4 5 -8 10 -8 6 0 10 6 10 14 0 8 18 18 41
24 39 10 41 9 35 -10 -7 -30 10 -111 34 -158 11 -22 30 -59 41 -82 17 -34 19
-45 9 -61 -6 -10 -9 -22 -6 -25 3 -3 6 1 6 8 0 7 2 11 6 8 3 -3 -4 -21 -15
-39 -27 -44 -27 -58 0 -28 l21 24 -6 -25 c-3 -14 -6 -29 -6 -33 0 -5 -3 -6 -8
-3 -4 2 -7 -12 -6 -31 2 -27 -2 -37 -17 -40 -10 -3 -16 -9 -14 -14 3 -4 13 -5
23 -2 16 5 16 5 1 -12 -16 -16 -15 -21 7 -76 13 -32 24 -69 24 -81 0 -13 12
-34 26 -47 17 -16 24 -32 21 -46 -4 -23 17 -37 262 -180 114 -66 163 -98 306
-199 66 -47 163 -111 215 -142 52 -31 137 -83 189 -116 101 -62 107 -65 109
-45 1 6 3 32 6 57 3 25 10 113 17 195 14 185 29 226 114 326 65 77 108 106
144 96 14 -3 21 2 26 20 9 36 39 26 43 -14 4 -39 -47 -152 -89 -195 -27 -29
-28 -34 -25 -112 2 -45 8 -91 14 -103 10 -17 9 -22 -6 -28 -16 -6 -16 -7 1
-16 14 -8 17 -24 17 -80 0 -78 26 -252 41 -282 6 -10 13 -33 15 -51 7 -60 12
-85 20 -97 5 -8 3 -9 -6 -4 -8 5 -11 4 -6 -3 6 -11 22 -80 31 -140 5 -32 24
-88 51 -149 8 -17 14 -35 14 -41 0 -5 7 -15 15 -22 17 -14 19 -7 5 21 -6 10
-15 38 -20 61 -5 24 -15 66 -23 93 -30 105 -30 101 4 115 16 7 35 21 42 30 17
24 37 27 66 11 20 -11 25 -11 33 0 7 10 8 8 5 -9 -3 -12 -1 -19 4 -16 5 3 12
-3 15 -13 3 -10 10 -27 14 -38 5 -11 11 -40 13 -65 3 -25 8 -55 12 -67 7 -21
5 -22 -31 -16 -22 3 -50 11 -63 18 -19 10 -29 9 -52 -2 -39 -20 -37 -33 11
-66 27 -19 136 -25 125 -7 -7 11 12 6 62 -16 28 -13 38 -13 81 1 47 16 51 21
53 68 0 9 2 17 4 17 2 0 43 -39 92 -88 69 -69 99 -91 141 -106 66 -23 143 -16
221 20 32 14 63 22 75 19 15 -5 17 -3 8 3 -9 6 12 11 61 15 80 6 139 33 172
79 39 56 65 99 55 93 -6 -4 -11 6 -11 22 -2 26 -2 25 -9 -7 l-7 -35 -2 39 c-1
38 -34 106 -52 106 -5 0 -9 7 -9 15 0 15 -8 18 -43 18 -21 -1 -20 0 7 97 8 30
23 60 32 67 9 7 13 17 8 24 -4 7 -3 10 3 6 9 -6 24 16 37 56 6 19 41 23 52 5
5 -8 10 -6 15 8 6 17 7 18 13 2 3 -10 9 -26 12 -35 13 -37 16 8 4 58 -11 45
-11 51 6 64 14 10 21 10 26 2 5 -8 8 -7 8 4 0 8 11 25 23 37 23 22 24 22 48 4
26 -21 129 -75 129 -68 0 2 -31 22 -69 45 -57 33 -69 45 -67 65 0 13 4 22 8
20 4 -2 9 0 13 6 4 6 10 8 15 5 5 -3 14 3 19 14 16 29 13 38 -5 15 -11 -14
-10 -9 3 16 10 19 21 37 26 38 4 2 4 8 1 13 -7 12 15 41 26 34 5 -3 11 4 15
15 13 41 20 18 18 -57 -2 -72 -1 -74 7 -30 9 48 24 81 20 42 -1 -11 -1 -29 0
-40 1 -17 3 -17 10 5 5 14 11 42 15 64 4 26 12 40 26 43 10 3 19 9 19 14 0 5
7 9 15 9 8 0 15 5 15 11 0 5 6 7 13 3 6 -4 9 -4 5 1 -9 9 81 111 94 107 5 -1
7 2 4 7 -3 5 1 11 9 15 8 3 15 12 15 20 0 8 11 36 25 62 14 26 25 53 25 60 0
7 11 25 24 41 12 15 29 39 36 53 l13 25 -20 -20 c-11 -11 -19 -23 -17 -26 2
-4 -3 -12 -11 -19 -11 -9 -8 5 8 51 23 64 26 72 28 87 1 4 5 -4 9 -18 7 -20 9
-14 8 25 -1 58 3 77 17 87 6 5 4 8 -5 8 -17 0 -53 57 -44 71 3 5 15 9 27 9 19
0 19 2 7 14 -8 8 -28 17 -44 19 -19 2 -32 11 -37 25 -8 22 4 31 16 12 13 -21
25 -10 14 13 -6 12 11 -3 39 -33 33 -34 47 -57 39 -60 -6 -3 -13 -12 -15 -20
-2 -8 0 -12 4 -7 4 4 18 0 32 -9 17 -11 22 -12 16 -3 -5 8 -9 20 -10 26 -1 7
-19 35 -39 63 -20 27 -34 50 -30 50 4 0 -1 8 -12 18 -10 9 -17 16 -14 15 2 -2
10 5 17 15 12 15 15 15 24 2 5 -9 10 -10 10 -3 0 12 17 12 38 0 7 -5 12 -3 12
3 0 7 7 9 16 6 8 -3 12 -2 9 4 -12 19 27 24 41 6 7 -10 17 -16 21 -13 5 3 33
-17 63 -45 l55 -50 -60 48 -60 48 70 -69 c39 -39 72 -69 74 -68 2 1 -2 9 -9
18 -22 27 2 16 49 -22 99 -80 120 -105 151 -183 45 -111 120 -357 134 -440 21
-123 34 -220 55 -400 16 -136 24 -409 28 -955 1 -280 3 -528 4 -550 5 -110
-30 -515 -61 -725 -10 -69 -21 -145 -24 -170 -4 -25 -13 -81 -21 -125 -23
-124 -24 -121 43 -79 230 147 525 421 690 641 286 384 455 804 547 1358 92
561 132 1071 122 1555 -7 294 -16 425 -48 670 -188 1458 -962 2400 -2175 2645
-138 28 -160 30 -167 13 -3 -7 -6 -1 -6 15 -1 20 -19 46 -68 96 -77 77 -132
114 -192 131 -23 6 -49 19 -56 28 -76 89 -101 112 -152 137 -32 15 -76 40 -99
56 -22 15 -54 31 -70 35 -16 3 -40 17 -54 30 -38 35 -96 55 -174 61 -65 5 -74
3 -106 -21 -88 -65 -75 -61 -117 -28 -56 43 -71 49 -156 61 -77 11 -142 12
-202 4z m1662 -1040 c-2 -16 -4 -5 -4 22 0 28 2 40 4 28 2 -13 2 -35 0 -50z
m-1257 -54 c0 -5 -8 -10 -17 -10 -17 -1 -17 -2 0 -6 9 -2 17 -9 17 -15 0 -6 9
-3 20 7 18 17 20 17 14 2 -4 -12 -1 -17 10 -17 17 0 34 -26 39 -59 2 -11 6
-24 10 -27 12 -13 8 -36 -5 -28 -7 4 -4 -2 6 -14 11 -12 16 -25 13 -28 -3 -4
-1 -16 5 -28 15 -26 17 -36 24 -118 3 -37 7 -76 9 -85 2 -10 4 -40 5 -68 l1
-50 14 37 c8 21 12 50 9 65 -3 15 -2 24 2 20 4 -4 8 -30 10 -59 2 -29 6 -64 9
-78 3 -14 8 -38 10 -55 10 -68 19 -118 38 -200 12 -52 15 -56 19 -30 3 23 6
15 12 -32 5 -35 11 -63 15 -63 3 0 6 -13 6 -30 0 -16 -3 -30 -7 -30 -4 0 -3
-12 2 -26 13 -34 13 -38 -3 -22 -7 7 -19 28 -27 47 -8 19 -15 30 -18 23 -2 -6
6 -29 18 -52 12 -23 17 -39 11 -35 -7 4 -11 -9 -12 -37 0 -24 -2 -52 -4 -63
-2 -11 -6 -31 -8 -45 -2 -14 -9 -38 -15 -53 -15 -35 -16 -58 -2 -37 5 8 10 10
10 5 0 -6 -4 -15 -9 -20 -15 -16 -59 -156 -71 -225 -16 -92 -29 -130 -56 -157
-13 -12 -27 -28 -31 -35 -4 -7 -29 -30 -55 -51 -25 -20 -66 -56 -89 -78 -24
-23 -45 -36 -47 -30 -3 9 -7 9 -18 0 -8 -6 -11 -15 -8 -20 3 -5 -3 -6 -12 -2
-12 4 -15 3 -10 -5 5 -8 0 -12 -12 -12 -11 0 -48 -16 -82 -35 -34 -19 -66 -35
-71 -35 -5 0 -18 -4 -29 -10 -11 -5 -28 -14 -38 -19 -16 -8 -45 -15 -99 -25
-40 -8 -197 -8 -248 -1 -59 9 -147 55 -192 101 -17 18 -34 30 -36 27 -3 -2 -8
1 -13 8 -5 8 -3 10 6 4 8 -5 11 -3 8 6 -3 8 -10 13 -16 12 -5 -1 -13 4 -16 13
-3 8 -1 12 4 9 6 -3 7 1 4 9 -3 9 -11 13 -17 9 -6 -4 -8 2 -5 15 4 12 2 22 -3
22 -6 0 -9 6 -7 14 2 8 -1 15 -5 15 -5 0 -24 31 -43 68 -18 37 -38 75 -43 83
-4 8 -17 42 -27 75 -10 33 -30 87 -45 120 -31 71 -43 115 -30 115 5 0 12 12
16 27 5 21 2 32 -14 44 -12 10 -21 20 -21 25 0 4 -13 20 -29 35 -17 16 -33 44
-37 64 -3 19 -10 35 -15 35 -5 0 -9 25 -9 56 0 30 4 53 8 50 5 -3 9 14 9 38 0
33 6 50 26 72 15 16 27 34 27 40 0 6 7 25 16 43 11 23 13 35 5 44 -28 35 42
96 95 83 13 -4 24 -2 24 3 0 6 11 6 29 0 21 -8 28 -15 24 -27 -3 -11 -2 -13 4
-6 4 6 22 13 39 16 26 3 31 1 26 -11 -5 -13 -3 -14 9 -4 15 12 99 11 138 -2
35 -11 71 -13 71 -4 0 4 -6 9 -12 12 -7 3 -3 4 10 4 30 -2 28 -16 -13 -75 -29
-43 -32 -51 -18 -56 39 -15 84 74 75 147 -5 40 -7 43 -134 163 -43 41 -135
105 -158 110 -3 0 -23 4 -45 9 -22 5 -46 8 -53 6 -21 -4 30 60 55 70 14 5 20
14 17 22 -3 8 2 22 11 31 9 9 13 20 10 26 -3 5 -2 10 3 10 6 0 24 14 42 30 18
17 41 30 51 30 10 0 19 5 19 10 0 6 9 10 19 10 11 0 26 6 34 14 8 8 26 13 41
12 14 -2 26 0 26 4 0 4 24 6 53 5 28 -1 57 1 62 5 6 4 25 10 42 12 28 4 31 2
20 -11 -8 -10 0 -8 24 6 23 13 41 17 46 12 6 -6 54 -1 124 12 63 11 135 23
162 26 26 3 47 9 47 14 0 5 12 9 26 9 16 0 23 4 18 12 -4 7 -3 8 5 4 13 -8 53
2 47 12 -2 4 25 8 60 9 35 1 64 -3 64 -8z m1237 -76 c-2 -16 -4 -5 -4 22 0 28
2 40 4 28 2 -13 2 -35 0 -50z m-3230 -185 c-3 -8 -6 -5 -6 6 -1 11 2 17 5 13
3 -3 4 -12 1 -19z m0 -155 c-3 -10 -5 -4 -5 12 0 17 2 24 5 18 2 -7 2 -21 0
-30z m3133 4 c0 -2 -19 -21 -42 -42 l-43 -40 40 43 c36 39 45 47 45 39z
m-2168 -69 c40 -20 68 -39 68 -48 -1 -11 -5 -10 -17 5 -12 16 -14 16 -10 3 3
-10 2 -20 -3 -23 -6 -4 -10 -2 -10 3 0 5 -17 8 -37 6 -21 -1 -41 2 -45 9 -5 8
-8 6 -8 -5 0 -19 -15 -24 -24 -10 -3 5 -20 7 -38 5 -31 -4 -32 -3 -14 11 11 9
16 16 10 16 -5 0 -2 5 6 10 10 6 11 10 3 10 -7 0 -13 9 -13 20 0 31 53 26 132
-12z m-932 -18 c6 -11 8 -20 6 -20 -3 0 -10 9 -16 20 -6 11 -8 20 -6 20 3 0
10 -9 16 -20z m75 -100 c21 -22 37 -40 34 -40 -3 0 -23 18 -44 40 -21 22 -37
40 -34 40 3 0 23 -18 44 -40z m2132 -27 c-3 -10 -5 -2 -5 17 0 19 2 27 5 18 2
-10 2 -26 0 -35z m-1187 7 c0 -5 -5 -10 -11 -10 -5 0 -7 5 -4 10 3 6 8 10 11
10 2 0 4 -4 4 -10z m-80 -25 c0 -23 -2 -24 -20 -15 -21 11 -25 22 -13 33 15
16 33 6 33 -18z m50 15 c0 -5 -2 -10 -4 -10 -3 0 -8 5 -11 10 -3 6 -1 10 4 10
6 0 11 -4 11 -10z m80 0 c0 -5 -2 -10 -4 -10 -3 0 -8 5 -11 10 -3 6 -1 10 4
10 6 0 11 -4 11 -10z m1168 -36 c1 -25 8 -52 17 -60 8 -9 15 -20 15 -26 0 -6
-9 -1 -19 11 -12 13 -21 17 -23 10 -3 -9 -2 80 1 104 3 20 7 2 9 -39z m-1971
-40 c-3 -3 -12 -4 -19 -1 -8 3 -5 6 6 6 11 1 17 -2 13 -5z m2003 -84 c5 8 7 3
7 -14 -2 -24 -3 -25 -14 -9 -7 9 -13 22 -12 27 0 6 3 5 6 -3 4 -10 7 -11 13
-1z m-112 -675 c-5 -28 -14 -54 -19 -59 -4 -5 -4 6 0 25 5 19 12 47 16 63 3
15 8 27 10 25 2 -3 -1 -27 -7 -54z m-1912 -8 c-8 -19 -24 -40 -33 -48 -17 -13
-17 -13 0 7 9 11 17 26 17 32 0 15 23 53 28 47 3 -2 -3 -20 -12 -38z m2892
-32 c-3 -3 -9 2 -12 12 -6 14 -5 15 5 6 7 -7 10 -15 7 -18z m-3060 -134 c-13
-15 -25 -27 -27 -25 -4 4 39 54 47 54 2 0 -7 -13 -20 -29z m3286 -257 c5 -14
4 -15 -9 -4 -17 14 -19 20 -6 20 5 0 12 -7 15 -16z m-3317 -96 c-3 -8 -6 -5
-6 6 -1 11 2 17 5 13 3 -3 4 -12 1 -19z m1576 -215 c-13 -2 -23 -9 -23 -14 0
-5 -11 -9 -25 -9 -23 0 -32 10 -20 21 2 3 24 5 47 6 24 0 33 -1 21 -4z m-1574
-54 c-19 -14 -22 -20 -11 -30 10 -11 12 -10 12 4 0 9 9 21 19 26 17 9 19 6 23
-24 2 -18 0 -44 -5 -57 l-9 -23 -9 23 c-5 13 -6 29 -2 34 3 7 1 8 -6 4 -7 -5
-9 -20 -6 -39 4 -22 -5 -61 -29 -127 l-34 -95 -22 47 c-27 61 -31 170 -7 213
17 32 100 88 106 72 2 -5 -7 -18 -20 -28z m-116 -50 c-9 -17 -16 -49 -17 -70
0 -21 -4 -32 -8 -26 -19 29 2 127 27 127 11 0 10 -6 -2 -31z m-46 -71 c-2 -13
-4 -5 -4 17 -1 22 1 32 4 23 2 -10 2 -28 0 -40z m1806 -38 c10 0 16 4 12 9 -3
6 4 9 15 8 19 -1 19 -3 6 -13 -9 -6 -17 -20 -17 -30 -1 -17 -2 -17 -6 -1 -8
32 -26 18 -19 -15 4 -26 3 -29 -5 -15 -5 9 -17 17 -24 17 -21 0 -18 20 3 21
15 1 16 2 0 6 -10 2 -15 10 -11 19 4 11 9 12 16 5 6 -6 19 -11 30 -11z m-66
-9 c0 -11 -5 -17 -9 -15 -11 7 -10 34 1 34 6 0 9 -9 8 -19z m153 -31 c-19 -13
-30 -13 -30 0 0 6 10 10 23 10 18 0 19 -2 7 -10z m-110 -35 c0 -8 -4 -17 -10
-20 -6 -3 -7 1 -4 9 3 9 1 16 -5 16 -6 0 -11 4 -11 10 0 5 7 7 15 4 8 -4 15
-12 15 -19z m1723 -6 c-9 -9 -12 -7 -10 9 1 14 5 18 11 12 7 -7 6 -14 -1 -21z
m-1639 5 c3 -8 2 -12 -4 -9 -6 3 -10 10 -10 16 0 14 7 11 14 -7z m-204 -6 c0
6 8 12 18 12 14 0 15 -2 2 -10 -13 -9 -13 -11 0 -20 13 -9 13 -10 0 -10 -18 0
-40 19 -40 35 0 5 5 3 10 -5 6 -10 10 -11 10 -2z m1913 -23 c7 -17 -3 -25 -34
-25 -13 0 -41 -2 -62 -4 -21 -2 -35 -1 -32 2 4 4 10 7 13 8 4 0 18 5 32 11 67
27 76 28 83 8z m-1913 -25 c8 -5 11 -10 5 -10 -5 0 -17 5 -25 10 -8 5 -10 10
-5 10 6 0 17 -5 25 -10z m1775 -109 c-8 -14 -25 -14 -25 0 0 5 5 7 10 4 6 -3
10 -1 10 6 0 7 3 10 6 6 3 -3 3 -10 -1 -16z m55 -191 c0 -5 -2 -10 -4 -10 -3
0 -8 5 -11 10 -3 6 -1 10 4 10 6 0 11 -4 11 -10z m-22 -55 c-3 -3 -9 2 -12 12
-6 14 -5 15 5 6 7 -7 10 -15 7 -18z m-71 -117 c-3 -7 -5 -2 -5 12 0 14 2 19 5
13 2 -7 2 -19 0 -25z m-23 -83 c-4 -8 -11 -15 -16 -15 -6 0 -5 6 2 15 7 8 14
15 16 15 2 0 1 -7 -2 -15z m-1 -82 c-7 -2 -13 -12 -13 -22 0 -9 -7 -26 -15
-37 -9 -11 -13 -13 -10 -4 16 51 26 70 37 69 10 0 10 -2 1 -6z m-61 -131 c-25
-34 -61 -67 -46 -41 14 25 59 77 63 73 2 -1 -6 -16 -17 -32z m-1732 8 c0 -5
-2 -10 -4 -10 -3 0 -8 5 -11 10 -3 6 -1 10 4 10 6 0 11 -4 11 -10z m-30 -536
c0 -2 -9 -4 -20 -4 -11 0 -20 4 -20 9 0 5 9 7 20 4 11 -3 20 -7 20 -9z m257
-24 c0 -21 -4 -37 -9 -34 -14 9 -8 74 7 74 1 0 2 -18 2 -40z m867 -47 c-1 -21
-3 -41 -3 -44 -1 -4 -15 -12 -31 -19 -17 -7 -38 -25 -47 -40 -16 -27 -63 -47
-63 -27 0 5 -8 3 -17 -4 -17 -13 -17 -13 -3 6 8 11 17 22 20 25 3 3 10 14 17
25 6 11 16 19 23 17 6 -1 9 2 5 8 -3 5 5 15 18 21 14 6 30 23 37 37 9 21 13
23 21 11 7 -12 9 -11 9 4 0 9 4 17 8 17 5 0 8 -17 6 -37z m-184 -31 c0 -4 -9
-13 -21 -20 -19 -12 -19 -11 -9 8 10 19 30 28 30 12z m-45 -52 c3 -5 1 -10 -4
-10 -6 0 -11 5 -11 10 0 6 2 10 4 10 3 0 8 -4 11 -10z m229 -27 c-9 -21 -20
-46 -25 -55 -5 -10 -9 -25 -9 -33 0 -9 -4 -14 -9 -11 -5 3 -9 0 -8 -7 1 -34
-4 -48 -15 -41 -7 4 -8 3 -4 -5 4 -6 2 -18 -4 -26 -21 -26 -33 -17 -27 20 3
19 2 35 -3 35 -4 0 -13 14 -19 31 -10 29 -9 31 32 48 23 10 55 33 71 50 17 17
31 31 33 31 1 0 -5 -17 -13 -37z m-1074 17 c0 -5 -5 -10 -11 -10 -5 0 -7 5 -4
10 3 6 8 10 11 10 2 0 4 -4 4 -10z m1050 7 c0 -2 -10 -12 -22 -23 l-23 -19 19
23 c18 21 26 27 26 19z m-130 -90 c0 -2 -9 -12 -20 -22 -19 -18 -20 -17 -20 3
0 15 6 22 20 22 11 0 20 -2 20 -3z m5 -47 c0 -16 -1 -30 -2 -30 -1 0 -8 3 -17
6 -12 5 -13 10 -4 30 15 32 23 30 23 -6z m204 -8 c20 -22 22 -33 18 -75 -6
-68 -30 -89 -106 -95 -55 -4 -59 -3 -55 15 3 12 21 24 49 32 24 7 49 19 56 27
11 14 -1 20 -14 8 -7 -7 -67 -14 -67 -8 0 2 12 33 26 69 23 57 29 65 48 59 11
-3 32 -17 45 -32z m-799 -47 c7 -9 8 -15 2 -15 -5 0 -12 7 -16 15 -3 8 -4 15
-2 15 2 0 9 -7 16 -15z m576 -8 c3 -24 -13 -21 -19 4 -3 12 -1 19 5 17 6 -2
12 -12 14 -21z m-36 -73 c0 -2 -7 -4 -15 -4 -8 0 -15 4 -15 10 0 5 7 7 15 4 8
-4 15 -8 15 -10z m284 -65 c-16 -17 -37 -35 -47 -40 -10 -6 2 10 25 34 24 24
45 42 47 40 3 -2 -9 -17 -25 -34z m-1004 6 c52 -12 34 -27 -22 -20 -62 9 -99
35 -42 30 19 -2 48 -6 64 -10z m904 -1 c40 6 40 5 16 -9 -52 -30 -89 -38 -120
-25 -24 10 -28 15 -20 30 9 16 15 17 47 8 20 -5 55 -7 77 -4z m-5829 -504 c10
-11 16 -20 13 -20 -3 0 -13 9 -23 20 -10 11 -16 20 -13 20 3 0 13 -9 23 -20z
m65 -46 c0 -2 -9 0 -20 6 -11 6 -20 13 -20 16 0 2 9 0 20 -6 11 -6 20 -13 20
-16z m80 -34 c8 -5 11 -10 5 -10 -5 0 -17 5 -25 10 -8 5 -10 10 -5 10 6 0 17
-5 25 -10z m807 -72 c-3 -8 -6 -5 -6 6 -1 11 2 17 5 13 3 -3 4 -12 1 -19z
m-617 -34 c0 -2 -9 0 -20 6 -11 6 -20 13 -20 16 0 2 9 0 20 -6 11 -6 20 -13
20 -16z m537 10 c-3 -3 -12 -4 -19 -1 -8 3 -5 6 6 6 11 1 17 -2 13 -5z m-398
-80 c14 -12 -19 -1 -35 12 -18 14 -18 14 6 3 14 -6 27 -13 29 -15z m-112 -261
c-3 -10 -5 -4 -5 12 0 17 2 24 5 18 2 -7 2 -21 0 -30z m115 -285 c10 -14 10
-20 0 -30 -9 -9 -15 -8 -27 8 -15 19 -15 19 -9 -1 3 -12 -1 -9 -11 8 -8 15
-20 27 -24 27 -13 0 -8 25 8 44 13 15 16 14 32 -11 10 -16 24 -36 31 -45z
m419 15 c12 -30 29 -93 24 -93 -1 0 -16 5 -33 11 -26 9 -30 15 -28 42 2 18 4
40 5 50 2 26 20 20 32 -10z m-371 -47 c0 -11 -19 -15 -25 -6 -3 5 1 10 9 10 9
0 16 -2 16 -4z m1 -39 c-6 -8 -7 -18 -3 -22 4 -5 1 -5 -6 -1 -10 6 -10 11 -1
22 6 8 14 14 16 14 3 0 0 -6 -6 -13z m79 -113 c41 -14 84 -30 95 -35 51 -22
192 -52 268 -58 11 -1 17 -9 17 -23 0 -47 -11 -50 -88 -24 -50 17 -72 21 -76
13 -2 -7 -5 -1 -5 12 -1 18 -5 21 -18 15 -39 -17 -194 -2 -214 22 -6 7 -18 10
-26 7 -11 -4 -14 -2 -9 5 3 6 -3 16 -14 22 -11 6 -20 8 -20 5 0 -3 -6 0 -14 7
-8 7 -12 16 -9 21 2 4 0 7 -6 7 -5 0 -11 -6 -14 -12 -2 -7 -4 1 -5 19 -1 30 1
31 31 27 17 -2 65 -15 107 -30z m260 -144 c8 -5 11 -10 5 -10 -5 0 -17 5 -25
10 -8 5 -10 10 -5 10 6 0 17 -5 25 -10z"/>
<path d="M4978 7033 c7 -3 16 -2 19 1 4 3 -2 6 -13 5 -11 0 -14 -3 -6 -6z"/>
<path d="M4650 6786 c0 -2 7 -7 16 -10 8 -3 12 -2 9 4 -6 10 -25 14 -25 6z"/>
<path d="M5415 6654 c-11 -3 -44 -17 -73 -31 -92 -45 -55 -46 238 -5 121 16
123 17 75 25 -69 10 -216 17 -240 11z m-75 -48 c0 -2 -7 -7 -16 -10 -8 -3 -12
-2 -9 4 6 10 25 14 25 6z"/>
<path d="M5835 6595 c59 -30 55 -29 55 -9 0 8 -5 12 -10 9 -6 -4 -16 -2 -23 3
-7 5 -25 12 -42 16 -22 4 -17 -1 20 -19z"/>
<path d="M5263 6559 c-6 -6 -9 -17 -6 -25 4 -10 9 -11 24 -1 22 13 26 37 6 37
-7 0 -18 -5 -24 -11z"/>
<path d="M5389 6542 c-25 -8 -99 -65 -99 -76 0 -6 4 -5 9 3 7 11 9 11 13 0 4
-11 14 -7 43 13 22 15 41 25 44 22 3 -3 -2 -10 -12 -15 -9 -6 -29 -21 -45 -34
-22 -19 -25 -26 -14 -36 9 -10 12 -10 12 0 0 7 4 10 9 7 5 -4 11 -3 13 2 5 13
65 52 80 52 8 0 19 -16 25 -35 10 -32 9 -35 -9 -35 -11 0 -26 -7 -34 -15 -9
-8 -11 -15 -5 -15 5 0 12 4 15 9 9 14 48 0 42 -15 -3 -8 -1 -14 3 -14 5 0 11
7 14 15 4 8 15 12 27 10 19 -4 20 -2 8 13 -12 15 -10 15 15 -1 15 -10 27 -13
27 -8 0 5 8 10 18 10 22 0 183 10 239 15 24 2 40 0 37 -5 -3 -5 2 -9 11 -9 11
0 15 5 12 14 -3 8 -1 17 6 20 8 3 6 5 -3 5 -8 0 -21 -3 -29 -8 -19 -12 -93 6
-109 27 -7 9 -14 15 -15 13 -4 -8 -47 11 -47 21 0 6 -3 8 -6 5 -4 -3 -16 -1
-28 5 -11 7 -23 13 -26 13 -51 8 -80 18 -80 27 0 7 -4 7 -13 -1 -8 -6 -17 -8
-20 -4 -8 7 -107 11 -128 5z m78 -28 c-3 -3 -12 -4 -19 -1 -8 3 -5 6 6 6 11 1
17 -2 13 -5z m58 -44 c3 -5 1 -10 -4 -10 -6 0 -11 5 -11 10 0 6 2 10 4 10 3 0
8 -4 11 -10z m55 0 c0 -5 -2 -10 -4 -10 -3 0 -8 5 -11 10 -3 6 -1 10 4 10 6 0
11 -4 11 -10z m30 -54 c0 -11 -19 -15 -25 -6 -3 5 1 10 9 10 9 0 16 -2 16 -4z"/>
<path d="M4896 6314 c-4 -10 -1 -14 6 -12 15 5 23 28 10 28 -5 0 -13 -7 -16
-16z"/>
<path d="M5951 6244 c0 -11 3 -14 6 -6 3 7 2 16 -1 19 -3 4 -6 -2 -5 -13z"/>
<path d="M5982 6220 c0 -14 2 -19 5 -12 2 6 2 18 0 25 -3 6 -5 1 -5 -13z"/>
<path d="M4842 6164 c-10 -17 -4 -64 7 -64 4 0 12 15 18 34 9 27 8 36 -3 40
-7 3 -17 -2 -22 -10z"/>
<path d="M5960 6126 c0 -8 5 -18 10 -21 6 -3 10 1 10 9 0 8 -4 18 -10 21 -5 3
-10 -1 -10 -9z"/>
<path d="M4723 6073 c-34 -32 -68 -72 -76 -88 -8 -17 -24 -39 -36 -49 -14 -12
-21 -31 -21 -54 0 -29 -2 -33 -15 -22 -8 7 -15 8 -15 3 0 -5 11 -16 25 -23 13
-7 22 -17 19 -21 -3 -5 1 -21 9 -36 8 -16 20 -41 26 -57 11 -28 12 -28 31 -11
11 10 22 16 24 14 9 -10 37 -72 57 -123 21 -57 49 -86 117 -121 19 -9 36 -14
39 -12 6 7 -34 47 -48 47 -6 0 -8 9 -4 21 6 16 4 20 -6 14 -8 -5 -6 1 4 12 9
11 17 24 17 30 0 6 9 9 20 6 11 -3 20 -1 20 3 0 12 -42 39 -56 36 -6 -1 -23
16 -38 38 -27 42 -37 77 -11 44 14 -18 15 -18 8 0 -7 20 -8 20 100 -1 16 -3
27 -1 27 6 0 6 -5 11 -11 11 -5 0 -7 5 -4 10 3 6 -3 10 -14 10 -14 0 -19 5
-15 15 4 9 0 15 -9 15 -9 0 -18 8 -22 19 -4 14 -20 21 -63 27 -31 4 -63 6 -69
5 -8 -1 -13 9 -13 23 0 14 -7 29 -15 34 -10 5 -13 15 -9 25 3 9 11 14 16 11 6
-4 5 4 -2 16 -7 12 -8 20 -2 16 5 -3 12 8 16 25 3 17 10 28 16 24 5 -3 10 -1
10 5 0 6 5 8 12 4 7 -5 8 -3 4 5 -5 7 -1 20 7 29 19 21 33 72 19 72 -5 0 -36
-26 -69 -57z"/>
<path d="M4842 6023 l-22 -4 21 -30 c18 -26 49 -43 34 -19 -4 7 3 6 20 0 l27
-10 -19 32 c-20 34 -26 37 -61 31z"/>
<path d="M5066 5967 c-18 -13 -11 -15 75 -16 103 -1 106 13 4 24 -45 5 -65 3
-79 -8z"/>
<path d="M5391 5967 c-1 -4 9 -24 22 -45 12 -20 33 -60 47 -87 14 -28 28 -51
33 -53 13 -6 7 -30 -9 -36 -9 -4 -38 -4 -64 0 -27 3 -63 1 -81 -5 -19 -6 -76
-11 -126 -12 -51 -1 -91 -5 -88 -9 3 -5 67 -8 143 -7 76 0 144 -3 151 -7 8 -5
11 -20 9 -37 -5 -34 1 -36 30 -9 12 12 22 19 22 16 0 -2 19 2 43 9 23 6 54 11
70 11 23 -1 27 2 27 26 0 20 -10 34 -37 55 -44 31 -126 113 -165 163 -15 19
-27 32 -27 27z m139 -261 c0 -3 -4 -8 -10 -11 -5 -3 -10 -1 -10 4 0 6 5 11 10
11 6 0 10 -2 10 -4z"/>
<path d="M4933 5943 c4 -6 3 -14 -3 -18 -30 -18 7 -41 79 -48 70 -7 64 20 -9
43 -25 7 -51 18 -59 24 -11 8 -13 8 -8 -1z"/>
<path d="M4961 5741 c-9 -16 -7 -19 22 -24 56 -9 127 -8 127 1 0 5 -13 7 -30
4 -16 -2 -30 0 -30 5 0 12 -40 11 -40 -2 -1 -5 -9 0 -20 13 -18 22 -19 22 -29
3z"/>
<path d="M5351 5628 c-9 -15 -15 -17 -26 -8 -11 9 -19 6 -35 -10 l-22 -22 24
6 c97 27 115 37 85 49 -7 3 -19 -4 -26 -15z"/>
<path d="M5210 5611 c0 -5 5 -13 10 -16 6 -3 10 -2 10 4 0 5 -4 13 -10 16 -5
3 -10 2 -10 -4z"/>
<path d="M4995 5590 c3 -5 8 -10 11 -10 2 0 4 5 4 10 0 6 -5 10 -11 10 -5 0
-7 -4 -4 -10z"/>
<path d="M4928 5473 c7 -3 16 -2 19 1 4 3 -2 6 -13 5 -11 0 -14 -3 -6 -6z"/>
<path d="M4681 5424 c0 -11 3 -14 6 -6 3 7 2 16 -1 19 -3 4 -6 -2 -5 -13z"/>
<path d="M6305 3220 c3 -5 8 -10 11 -10 2 0 4 5 4 10 0 6 -5 10 -11 10 -5 0
-7 -4 -4 -10z"/>
<path d="M6254 3032 c-9 -5 -8 -10 1 -19 11 -10 13 -9 12 7 -1 11 -1 20 -2 20
0 0 -5 -4 -11 -8z"/>
<path d="M4090 8201 c-110 -58 -107 -205 5 -268 50 -28 135 -31 185 -5 77 38
105 142 57 213 -47 71 -170 101 -247 60z"/>
<path d="M3215 7894 c-121 -19 -229 -86 -278 -173 -106 -189 71 -423 350 -462
290 -41 510 144 442 371 -29 95 -151 201 -274 239 -66 21 -186 33 -240 25z"/>
<path d="M7248 4313 c7 -3 16 -2 19 1 4 3 -2 6 -13 5 -11 0 -14 -3 -6 -6z"/>
<path d="M3588 3873 c13 -13 31 -23 40 -22 11 0 9 4 -8 10 -13 6 -32 15 -40
22 -9 7 -5 2 8 -10z"/>
<path d="M3684 3893 c3 -3 -2 -12 -12 -20 -16 -12 -16 -13 3 -7 11 3 -5 -8
-36 -25 -30 -16 -61 -36 -68 -45 -7 -9 -18 -13 -25 -9 -6 3 -8 2 -3 -2 4 -5
-3 -20 -15 -33 l-23 -25 23 14 c12 8 22 17 22 20 0 4 6 9 14 12 9 4 5 -8 -10
-30 -13 -20 -24 -39 -24 -44 0 -4 -18 -34 -39 -66 -21 -33 -44 -77 -50 -99
-40 -147 -52 -212 -46 -249 9 -62 52 -140 99 -182 24 -21 48 -48 55 -60 25
-47 124 -70 166 -39 16 12 22 12 42 -1 17 -11 40 -14 83 -10 63 5 64 3 31 -38
-15 -19 -15 -19 3 -5 11 8 25 29 32 45 7 17 23 42 36 58 l23 27 56 -23 c56
-23 57 -24 43 -48 -16 -28 -18 -79 -4 -79 6 0 10 6 10 13 0 7 7 4 15 -7 15
-20 15 -20 17 0 0 10 1 26 0 34 0 11 3 10 14 -4 7 -11 17 -17 20 -13 4 4 1 13
-6 22 -9 11 -9 15 -1 15 7 0 9 5 5 11 -5 8 -1 8 14 0 11 -6 29 -8 39 -4 16 6
16 5 5 -10 -8 -8 -20 -13 -28 -10 -16 6 -20 -32 -4 -42 6 -3 10 0 10 7 0 7 10
18 23 23 12 6 21 18 21 28 -2 20 12 23 19 5 3 -7 6 -4 6 7 1 14 4 16 9 8 5 -8
8 1 9 21 1 21 -5 37 -12 40 -8 3 -21 19 -30 37 -14 26 -15 37 -5 57 10 23 9
24 -5 12 -13 -11 -15 -10 -9 4 3 9 11 16 18 16 7 0 6 4 -2 9 -12 7 -11 14 3
41 9 17 15 34 12 36 -6 7 -35 -40 -43 -70 -3 -14 -10 -23 -15 -20 -5 3 -9 0
-9 -5 0 -6 3 -11 8 -11 4 0 7 -25 7 -55 0 -30 -1 -51 -3 -46 -2 5 -13 6 -25 3
-19 -5 -20 -3 -9 11 14 16 9 37 -9 37 -6 0 -7 -5 -4 -11 4 -6 -2 -13 -14 -16
-16 -4 -19 -9 -10 -19 8 -10 6 -13 -8 -12 -10 0 -22 0 -28 -2 -20 -5 -36 0
-30 10 4 6 1 9 -6 8 -6 -2 -14 3 -17 11 -3 9 0 11 9 6 8 -5 3 4 -10 18 l-25
27 32 -4 c18 -2 32 1 32 5 0 5 6 9 14 9 13 0 46 41 46 57 0 4 -9 -5 -19 -21
l-19 -28 0 38 c-1 55 7 77 25 70 10 -4 13 -2 10 8 -3 8 4 22 16 33 17 14 19
14 9 1 -7 -9 -12 -25 -10 -35 2 -12 -3 -18 -14 -17 -11 1 -15 -4 -11 -15 4
-14 3 -14 -6 -1 -8 12 -10 11 -9 -6 2 -15 7 -20 20 -16 10 2 15 9 11 15 -4 6
0 8 8 5 9 -4 15 1 17 13 4 42 6 48 13 43 4 -2 10 0 14 5 3 6 18 10 33 9 15 -1
41 2 57 5 27 7 28 6 8 -4 -13 -7 -23 -16 -23 -21 0 -5 9 -4 21 2 11 7 32 9 46
5 47 -11 107 29 65 43 -8 2 -10 -3 -6 -15 3 -10 -5 2 -17 26 -27 53 -55 82
-93 99 -15 7 -56 35 -90 62 -260 210 -331 266 -347 276 -10 6 -17 13 -14 15 2
3 -5 11 -17 18 -16 10 -18 10 -12 0 4 -7 -11 0 -33 17 -23 16 -40 31 -37 33 2
2 12 -2 21 -10 16 -13 17 -12 5 2 -7 9 -22 19 -33 22 -12 3 -18 3 -15 0z m-35
-170 c-17 -22 -31 -33 -43 -33 -5 0 1 11 14 25 27 28 50 34 29 8z m-9 -117 c0
-2 -8 -10 -17 -17 -16 -13 -17 -12 -4 4 13 16 21 21 21 13z m-7 -223 c-7 -2
-13 -11 -13 -18 0 -8 -5 -17 -11 -20 -6 -4 -9 0 -7 11 3 21 17 34 33 33 6 0 4
-3 -2 -6z m18 -20 c-12 -20 -14 -14 -5 12 4 9 9 14 11 11 3 -2 0 -13 -6 -23z
m-61 -25 c-1 -31 -34 -87 -46 -76 -2 3 -9 19 -14 36 -7 28 -5 34 17 52 35 28
43 25 43 -12z m150 4 c0 -5 -3 -12 -7 -16 -4 -4 -8 -17 -8 -28 0 -12 -6 -23
-12 -25 -16 -6 -17 18 -1 52 11 24 28 34 28 17z m88 -194 c-21 -13 -26 -9 -24
16 1 23 2 23 19 9 13 -13 15 -18 5 -25z m-317 -25 c13 -16 12 -17 -3 -4 -17
13 -22 21 -14 21 2 0 10 -8 17 -17z m89 -22 c0 -5 8 -12 18 -14 9 -3 -1 -5
-23 -4 -51 1 -67 9 -35 18 36 10 40 10 40 0z m134 3 c25 -9 19 -22 -9 -20 -25
1 -31 7 -18 19 8 8 8 8 27 1z m150 -20 c24 -23 20 -33 -17 -49 -55 -23 -92 -4
-68 34 7 11 13 12 23 4 10 -8 18 -8 30 1 10 7 15 16 11 19 -3 4 -4 7 0 7 3 0
13 -7 21 -16z m-101 -9 c-3 -9 -8 -14 -10 -11 -3 3 -2 9 2 15 9 16 15 13 8 -4z
m-147 -24 c4 6 16 2 30 -12 13 -12 27 -19 31 -16 3 4 1 7 -5 7 -7 0 -12 5 -12
11 0 8 5 8 15 -1 24 -20 18 -28 -30 -36 -49 -7 -85 9 -105 46 -10 19 -9 19 30
5 26 -9 42 -10 46 -4z m99 9 c3 -5 1 -10 -4 -10 -6 0 -11 5 -11 10 0 6 2 10 4
10 3 0 8 -4 11 -10z"/>
<path d="M6984 3808 c-30 -34 -47 -58 -42 -58 3 0 19 18 37 40 34 43 38 55 5
18z"/>
<path d="M6530 3388 c0 -4 4 -8 9 -8 6 0 12 4 15 8 3 5 -1 9 -9 9 -8 0 -15 -4
-15 -9z"/>
<path d="M4880 3370 c20 -13 33 -13 25 0 -3 6 -14 10 -23 10 -15 0 -15 -2 -2
-10z"/>
<path d="M4116 3193 c-6 -14 -5 -15 5 -6 7 7 10 15 7 18 -3 3 -9 -2 -12 -12z"/>
<path d="M4108 3151 c-11 -14 -11 -14 4 -3 10 8 17 9 20 3 2 -6 9 -7 16 -2 10
6 9 10 -7 14 -12 3 -25 -2 -33 -12z"/>
<path d="M6400 3050 c0 -5 7 -10 16 -10 8 0 12 5 9 10 -3 6 -10 10 -16 10 -5
0 -9 -4 -9 -10z"/>
<path d="M6445 3022 c4 -8 11 -26 15 -40 7 -22 8 -23 9 -6 1 11 -6 29 -15 40
-8 10 -12 13 -9 6z"/>
<path d="M4141 2904 c0 -11 3 -14 6 -6 3 7 2 16 -1 19 -3 4 -6 -2 -5 -13z"/>
<path d="M6623 2877 c-7 -19 -8 -50 -4 -77 7 -44 7 -43 12 30 3 41 5 76 4 77
-1 1 -6 -12 -12 -30z"/>
<path d="M4150 2872 c0 -5 7 -17 16 -28 14 -17 15 -17 10 -1 -3 10 -6 23 -6
28 0 5 -4 9 -10 9 -5 0 -10 -4 -10 -8z"/>
<path d="M4114 2829 c0 -10 6 -19 13 -19 8 0 18 -10 23 -22 5 -13 9 -18 9 -11
1 6 4 18 7 27 4 9 -4 20 -23 29 -27 14 -29 14 -29 -4z"/>
<path d="M4084 2802 c-13 -8 -34 -46 -34 -61 0 -20 16 -11 17 10 1 12 10 30
19 40 18 20 17 24 -2 11z"/>
<path d="M5665 2780 c3 -5 8 -10 11 -10 2 0 4 5 4 10 0 6 -5 10 -11 10 -5 0
-7 -4 -4 -10z"/>
<path d="M4123 2748 c-8 -14 -10 -19 -12 -43 0 -8 -7 -15 -15 -15 -8 0 -16 7
-20 15 -3 8 -11 15 -18 14 -10 0 -10 -2 0 -6 6 -2 12 -13 12 -24 0 -10 5 -19
10 -19 6 0 10 -5 10 -11 0 -5 -4 -8 -9 -4 -5 3 -13 0 -17 -6 -5 -8 -3 -9 6 -4
10 6 12 4 6 -10 -6 -16 -4 -16 10 -4 16 13 16 12 6 -8 -9 -16 -9 -24 0 -29 6
-4 8 -3 5 3 -4 6 2 18 13 28 14 13 20 31 20 61 0 24 5 46 10 49 6 3 10 10 10
16 0 13 -17 11 -27 -3z"/>
<path d="M5333 2705 c19 -18 26 -33 22 -46 -7 -21 19 -66 29 -51 3 6 -2 13
-11 16 -12 5 -13 10 -5 18 15 15 -10 63 -41 79 -18 9 -18 7 6 -16z"/>
<path d="M6586 2694 c-4 -11 -2 -15 8 -11 8 3 17 1 20 -6 2 -7 5 -2 5 11 1 25
-24 30 -33 6z"/>
<path d="M6599 2598 c-16 -65 -18 -110 -3 -115 8 -3 13 24 16 79 3 46 4 84 3
86 -2 2 -9 -21 -16 -50z"/>
<path d="M4120 2625 c-10 -12 -8 -22 9 -52 21 -37 21 -37 1 -14 -11 13 -23 21
-26 19 -6 -6 140 -141 183 -169 15 -11 34 -19 42 -19 8 0 62 -31 120 -69 115
-75 166 -102 224 -121 33 -10 41 -10 57 5 20 18 18 35 -3 35 -7 0 -6 -4 3 -10
12 -8 10 -10 -8 -10 -13 0 -20 4 -17 10 6 10 5 11 -32 15 -12 1 -29 9 -38 18
-9 9 -23 13 -32 10 -12 -5 -15 -2 -10 10 4 11 2 14 -9 10 -7 -3 -14 0 -14 6 0
6 -6 8 -14 5 -8 -3 -23 8 -36 26 -14 20 -54 46 -118 77 -53 26 -98 50 -100 54
-2 5 -10 5 -18 2 -10 -3 -12 0 -8 10 3 9 -7 23 -28 38 -18 13 -34 27 -36 31
-2 4 -10 8 -18 8 -9 0 -13 4 -10 8 3 5 -4 18 -14 30 -11 12 -20 26 -20 31 0
18 -17 21 -30 6z"/>
<path d="M1640 2198 c0 -9 5 -20 10 -23 13 -8 13 5 0 25 -8 13 -10 13 -10 -2z"/>
<path d="M1450 2140 c0 -5 5 -10 11 -10 5 0 8 -4 4 -9 -7 -12 29 -33 39 -24 9
9 7 25 -2 19 -5 -3 -15 4 -22 15 -16 21 -30 25 -30 9z"/>
<path d="M5321 2084 c0 -11 3 -14 6 -6 3 7 2 16 -1 19 -3 4 -6 -2 -5 -13z"/>
<path d="M5285 1980 c3 -5 8 -10 11 -10 2 0 4 5 4 10 0 6 -5 10 -11 10 -5 0
-7 -4 -4 -10z"/>
<path d="M6590 1970 c0 -5 3 -10 8 -11 4 0 15 -2 25 -4 9 -2 17 3 17 11 0 8
-10 14 -25 14 -14 0 -25 -4 -25 -10z"/>
<path d="M5255 1920 c3 -5 10 -10 16 -10 5 0 9 5 9 10 0 6 -7 10 -16 10 -8 0
-12 -4 -9 -10z"/>
<path d="M6641 1913 c-1 -6 -14 -24 -29 -40 -53 -53 -44 -78 22 -66 22 5 26
11 25 37 -1 32 -16 90 -18 69z"/>
<path d="M5610 1900 c-9 -6 -10 -10 -3 -10 6 0 15 5 18 10 8 12 4 12 -15 0z"/>
<path d="M5224 1868 l-19 -23 23 19 c21 18 27 26 19 26 -2 0 -12 -10 -23 -22z"/>
<path d="M1176 1811 c-3 -22 -12 -46 -19 -53 -7 -7 -16 -22 -21 -33 -4 -11 -4
-16 0 -13 3 4 13 0 22 -9 14 -14 16 -14 22 3 8 21 13 144 7 144 -3 0 -7 -18
-11 -39z"/>
<path d="M5510 1840 c0 -5 5 -10 11 -10 5 0 7 5 4 10 -3 6 -8 10 -11 10 -2 0
-4 -4 -4 -10z"/>
<path d="M5145 1820 c-3 -6 1 -7 9 -4 18 7 21 14 7 14 -6 0 -13 -4 -16 -10z"/>
<path d="M5128 1793 c6 -9 16 -18 23 -19 8 -1 23 -5 34 -9 18 -7 18 -6 5 7 -8
8 -28 20 -43 26 -25 11 -27 10 -19 -5z"/>
<path d="M5506 1769 c-9 -58 -12 -119 -5 -119 7 0 22 141 15 147 -3 3 -7 -10
-10 -28z"/>
<path d="M5068 1773 c7 -3 16 -2 19 1 4 3 -2 6 -13 5 -11 0 -14 -3 -6 -6z"/>
<path d="M6640 1745 c-22 -12 -56 -26 -70 -29 -22 -5 -38 -27 -44 -58 -6 -30
-3 -40 16 -58 28 -25 130 -92 134 -87 7 7 0 234 -7 241 -2 3 -15 -2 -29 -9z"/>
<path d="M3436 1597 c3 -10 9 -15 12 -12 3 3 0 11 -7 18 -10 9 -11 8 -5 -6z"/>
<path d="M5480 1590 c0 -5 7 -10 16 -10 8 0 12 5 9 10 -3 6 -10 10 -16 10 -5
0 -9 -4 -9 -10z"/>
<path d="M3643 1564 c-12 -13 -19 -24 -16 -24 3 0 -2 -9 -12 -20 -10 -11 -24
-20 -31 -20 -7 0 -14 -4 -16 -10 -1 -5 -19 -11 -38 -12 -20 -2 -38 -10 -42
-19 -4 -11 -20 -16 -54 -17 -37 0 -51 -5 -64 -23 -10 -12 -22 -19 -29 -15 -16
10 -51 -3 -51 -20 0 -8 -5 -14 -11 -14 -5 0 -8 -4 -5 -9 8 -12 -42 -144 -57
-153 -7 -4 -12 -11 -12 -16 0 -19 -37 -43 -85 -54 -34 -8 -46 -14 -38 -20 8
-5 -3 -6 -27 -3 -31 5 -37 4 -25 -5 12 -9 3 -10 -40 -6 -40 4 -51 3 -40 -5 11
-8 5 -9 -25 -5 -22 3 -34 2 -28 -2 17 -11 -130 -35 -160 -27 -18 5 -19 4 -7
-5 12 -9 9 -11 -17 -8 -18 3 -30 1 -27 -4 5 -7 -28 -12 -66 -10 -8 0 -17 -3
-20 -7 -11 -17 -127 -40 -178 -36 -38 3 -51 2 -46 -6 5 -8 -7 -10 -42 -6 -34
5 -43 4 -29 -3 13 -6 1 -7 -39 -3 -43 5 -57 3 -52 -5 4 -7 1 -12 -8 -12 -8 0
-23 -3 -33 -6 -15 -5 -16 -4 -3 6 13 10 12 11 -3 6 -10 -3 -33 -6 -50 -6 -25
0 -29 -3 -17 -10 11 -7 2 -9 -30 -4 -35 4 -42 3 -30 -6 12 -9 8 -10 -17 -5
-18 4 -33 4 -33 1 0 -3 42 -27 93 -52 361 -182 792 -349 1207 -469 179 -51
449 -117 539 -131 l44 -7 -7 34 c-10 50 -25 317 -26 448 0 90 -6 139 -29 235
-16 66 -29 128 -29 136 0 8 -12 58 -25 110 -18 67 -30 95 -40 94 -9 -1 -13 5
-10 16 4 14 -33 229 -40 237 -1 1 -12 -9 -24 -23z m-496 -440 c-3 -3 -12 -4
-19 -1 -8 3 -5 6 6 6 11 1 17 -2 13 -5z"/>
<path d="M3470 1540 c-13 -8 -12 -10 3 -10 9 0 17 5 17 10 0 12 -1 12 -20 0z"/>
<path d="M5480 1529 c0 -5 5 -7 10 -4 6 3 10 8 10 11 0 2 -4 4 -10 4 -5 0 -10
-5 -10 -11z"/>
<path d="M5471 1474 c0 -11 3 -14 6 -6 3 7 2 16 -1 19 -3 4 -6 -2 -5 -13z"/>
<path d="M1365 1410 c3 -5 14 -10 23 -10 15 0 15 2 2 10 -20 13 -33 13 -25 0z"/>
<path d="M5450 1351 c0 -5 7 -12 16 -15 14 -5 15 -4 4 9 -14 17 -20 19 -20 6z"/>
<path d="M2026 1313 c-6 -14 -5 -15 5 -6 7 7 10 15 7 18 -3 3 -9 -2 -12 -12z"/>
<path d="M5440 1320 c0 -5 7 -10 16 -10 8 0 12 5 9 10 -3 6 -10 10 -16 10 -5
0 -9 -4 -9 -10z"/>
<path d="M1904 1263 c4 -8 1 -13 -8 -13 -9 0 -16 -4 -16 -10 0 -12 11 -13 30
0 13 8 13 11 1 22 -10 10 -12 10 -7 1z"/>
<path d="M1816 1053 c-18 -25 -18 -25 2 -14 25 13 35 28 25 34 -5 3 -16 -6
-27 -20z"/>
<path d="M1710 1045 c7 -8 20 -14 29 -14 13 1 13 2 -1 6 -10 2 -18 9 -18 14 0
5 -5 9 -11 9 -8 0 -8 -5 1 -15z"/>
<path d="M8715 991 c-53 -14 -102 -41 -138 -78 -54 -54 -72 -97 -72 -178 0
-58 5 -78 27 -116 15 -25 44 -61 65 -79 142 -126 379 -97 470 57 24 41 28 59
28 123 0 64 -4 82 -27 121 -34 58 -87 105 -147 131 -50 21 -159 32 -206 19z"/>
<path d="M5620 909 c-182 -41 -166 -52 30 -20 123 21 150 28 150 41 0 18 -20
16 -180 -21z"/>
<path d="M1704 929 c-3 -5 6 -9 20 -9 31 0 34 6 6 13 -11 3 -23 1 -26 -4z"/>
<path d="M1948 923 c7 -3 16 -2 19 1 4 3 -2 6 -13 5 -11 0 -14 -3 -6 -6z"/>
<path d="M8070 512 c-33 -34 -37 -59 -15 -101 40 -79 202 -81 234 -3 15 35 4
67 -33 102 -21 19 -40 25 -91 28 -61 4 -66 3 -95 -26z"/>
<path d="M6447 259 c-5 -20 -2 -22 25 -11 17 7 17 8 -1 19 -16 10 -20 9 -24
-8z"/>
</g>
</svg>
