<?xml version="1.0" encoding="utf-8"?>
<!-- Generator: Adobe Illustrator 24.0.2, SVG Export Plug-In . SVG Version: 6.00 Build 0)  -->
<svg version="1.1" id="Layer_1" xmlns="http://www.w3.org/2000/svg" xmlns:xlink="http://www.w3.org/1999/xlink" x="0px" y="0px"
	 viewBox="0 0 63.3 62.3" style="enable-background:new 0 0 63.3 62.3;" xml:space="preserve">
<style type="text/css">
	.st0{fill:none;}
	.st1{fill:#FFFFFF;}
</style>
<path class="st0" d="M63,59.1c0,1.6-1.3,2.9-2.9,2.9H3.2c-1.6,0-2.9-1.3-2.9-2.9V3.2c0-1.6,1.3-2.9,2.9-2.9h56.9
	c1.6,0,2.9,1.3,2.9,2.9V59.1z"/>
<g>
	<path class="st1" d="M60.1,0.7H3.2c-1.4,0-2.5,1.1-2.5,2.5l0,55.9c0,1.4,1.1,2.5,2.5,2.5h31.2v-24h-8.2v-9.2h8.2v-8.9
		c0-5.5,5-9.6,9.4-9.6h9.5v8.5h-4.6c-2,0-4.5,1.6-4.5,3.4v6.7h8.2v9.2h-8.2v24h15.8c1.4,0,2.5-1.1,2.5-2.5V3.2
		C62.6,1.8,61.5,0.7,60.1,0.7z"/>
	<path class="st1" d="M60.1,0H3.2C1.5,0,0,1.4,0,3.2l0,55.9c0,1.8,1.4,3.2,3.2,3.2h32V36.9H27v-7.8h8.2v-9.6c0-5.5,5.1-8.9,8.7-8.9
		h8.8v7h-3.9c-2.3,0-5.2,1.9-5.2,4.1v7.4h8.2v7.8h-8.2v25.5h16.5c1.8,0,3.2-1.4,3.2-3.2V3.2C63.3,1.4,61.9,0,60.1,0z M62.6,59.1
		c0,1.4-1.1,2.5-2.5,2.5H44.3v-24h8.2v-9.2h-8.2v-6.7c0-1.8,2.5-3.4,4.5-3.4h4.6V9.8h-9.5c-4.5,0-9.4,4.1-9.4,9.6v8.9h-8.2v9.2h8.2
		v24H3.2c-1.4,0-2.5-1.1-2.5-2.5l0-55.9c0-1.4,1.1-2.5,2.5-2.5h56.9c1.4,0,2.5,1.1,2.5,2.5V59.1z"/>
</g>
</svg>
