<?xml version="1.0" encoding="utf-8"?>
<!-- Generator: Adobe Illustrator 24.0.2, SVG Export Plug-In . SVG Version: 6.00 Build 0)  -->
<svg version="1.1" id="Capa_1" xmlns="http://www.w3.org/2000/svg" xmlns:xlink="http://www.w3.org/1999/xlink" x="0px" y="0px"
	 viewBox="0 0 459.3 459.3" style="enable-background:new 0 0 459.3 459.3;" xml:space="preserve">
<style type="text/css">
	.st0{fill:#FFFFFF;}
	.st1{fill:#3B7BBF;}
</style>
<rect x="82" y="43" class="st0" width="78" height="281.3"/>
<rect x="54.3" y="352.8" class="st0" width="344.3" height="90"/>
<g>
	<g>
		<path class="st1" d="M94.9,366.7h312.9c1,0,1.9-0.1,2.8-0.3c0.1,0,0.1,0,0.2,0c6.7,0,12.1-5.4,12.1-12.1V12.1
			c0-6.7-5.4-12.1-12.1-12.1h-3H114.3H94.9C62.7,0,36.5,26.2,36.5,58.4c0,0.4,0.1,0.8,0.1,1.3c0,29.8-0.4,303.2,0,339.1
			c0,0.7-0.1,1.4-0.1,2.1c0,31,24.3,56.3,54.8,58.2c0.6,0.1,1.2,0.2,1.8,0.2h317.7c6.7,0,12.1-5.4,12.1-12.1v-45.6
			c0-6.7-5.4-12.1-12.1-12.1s-12.1,5.4-12.1,12.1v33.5H94.9c-18.4,0-33.4-14.6-34.1-32.8c0-0.3,0.1-0.6,0.1-1c0-0.5,0-1.4,0-2.5
			C61.9,380.9,76.7,366.7,94.9,366.7z M103.2,58.4c0-6.7,5.4-12.1,12.1-12.1s12.1,5.4,12.1,12.1v245.9c0,6.7-5.4,12.1-12.1,12.1
			s-12.1-5.4-12.1-12.1C103.2,304.3,103.2,58.4,103.2,58.4z"/>
	</g>
	<g>
		<path class="st1" d="M94.9,366.7h312.9c1,0,1.9-0.1,2.8-0.3c0.1,0,0.1,0,0.2,0c6.7,0,12.1-5.4,12.1-12.1V12.1
			c0-6.7-5.4-12.1-12.1-12.1h-3H114.3H94.9C62.7,0,36.5,26.2,36.5,58.4c0,0.4,0.1,0.8,0.1,1.3c0,29.8-0.4,303.2,0,339.1
			c0,0.7-0.1,1.4-0.1,2.1c0,31,24.3,56.3,54.8,58.2c0.6,0.1,1.2,0.2,1.8,0.2h317.7c6.7,0,12.1-5.4,12.1-12.1
			c-0.1-31.5-0.3-63-0.4-94.5c-8,0-16,0-24,0c-0.4,8.5-0.2,41.8,0.2,48.9c0,11.2,0,22.3,0,33.5H94.9c-18.4,0-33.4-14.6-34.1-32.8
			c0-0.3,0.1-0.6,0.1-1c0-0.5,0-1.4,0-2.5C61.9,380.9,76.7,366.7,94.9,366.7z M103.2,58.4c0-6.7,5.4-12.1,12.1-12.1
			s12.1,5.4,12.1,12.1v245.9c0,6.7-5.4,12.1-12.1,12.1s-12.1-5.4-12.1-12.1C103.2,304.3,103.2,58.4,103.2,58.4z"/>
	</g>
</g>
</svg>
