<?xml version="1.0" encoding="utf-8"?>
<!-- Generator: Adobe Illustrator 24.0.2, SVG Export Plug-In . SVG Version: 6.00 Build 0)  -->
<svg version="1.1" id="Capa_1" xmlns="http://www.w3.org/2000/svg" xmlns:xlink="http://www.w3.org/1999/xlink" x="0px" y="0px"
	 viewBox="0 0 505.5 480.3" style="enable-background:new 0 0 505.5 480.3;" xml:space="preserve">
<style type="text/css">
	.st0{fill:#8AB1FF;}
	.st1{fill-rule:evenodd;clip-rule:evenodd;fill:#EA3F3F;stroke:#EA3F3F;stroke-width:0.5669;stroke-miterlimit:10;}
	.st2{fill:#0B4068;}
	.st3{fill-rule:evenodd;clip-rule:evenodd;fill:#FFFFFF;stroke:#FFFFFF;stroke-width:0.5669;stroke-miterlimit:10;}
	.st4{fill-rule:evenodd;clip-rule:evenodd;fill:#6699FF;stroke:#6699FF;stroke-width:0.5669;stroke-miterlimit:10;}
	.st5{fill-rule:evenodd;clip-rule:evenodd;fill:#8AB1FF;stroke:#8AB1FF;stroke-width:0.5669;stroke-miterlimit:10;}
	.st6{fill-rule:evenodd;clip-rule:evenodd;fill:#B55200;stroke:#B55200;stroke-width:0.5669;stroke-miterlimit:10;}
	.st7{fill-rule:evenodd;clip-rule:evenodd;fill:#F5BF91;stroke:#F5BF91;stroke-width:0.5669;stroke-miterlimit:10;}
</style>
<g>
	<path class="st0" d="M252.8,0C113.6,0,0,107.9,0,240.1c0,132.3,113.6,240.2,252.8,240.2c139.2,0,252.8-107.9,252.8-240.2
		C505.5,107.9,392,0,252.8,0z"/>
	<path class="st1" d="M253.8,418.8c104.2,0,189.1-80.7,189.1-179.7c0-98.9-85-179.7-189.1-179.7c-104.2,0-189.1,80.7-189.1,179.7
		C64.6,338.1,149.6,418.8,253.8,418.8L253.8,418.8z"/>
	<g>
		<path class="st2" d="M76.9,88.7l35.4,10.9l-2.4,2.7l-11.7-3.5l-9.7,10.7l4.7,11.3l-2.5,2.8L76.4,89.3L76.9,88.7z M82,93.8
			l5.1,12.4l7.7-8.5L82,93.8z"/>
		<path class="st2" d="M125.7,55l-0.6,3.5c-2.6-0.3-5.1-0.2-7.4,0.4c-2.3,0.6-4.3,1.5-6,2.8c-2.1,1.6-3.7,3.6-4.8,6.1
			c-1.1,2.5-1.5,5-1.2,7.5c0.3,2.5,1.2,4.8,2.7,6.8c1.5,2,3.5,3.5,6,4.5c2.5,1,5,1.3,7.7,0.9c2.7-0.4,5.2-1.5,7.4-3.2
			c2.7-2.1,4.5-4.6,5.2-7.6c0.7-3,0.3-5.9-1.2-8.6l-8.5,6.5l-2-2.6l11.5-8.7c3.1,4.1,4.4,8.3,3.8,12.6c-0.6,4.3-2.9,8-7,11
			c-5,3.7-10.1,5-15.6,3.9c-4.2-0.9-7.6-3.1-10.1-6.5c-1.9-2.5-3.1-5.3-3.5-8.5c-0.4-3.1,0-6.2,1.3-9.1c1.3-2.9,3.3-5.5,6.1-7.6
			c2.3-1.7,4.7-2.9,7.3-3.6C119.5,54.8,122.5,54.6,125.7,55L125.7,55z"/>
		<path class="st2" d="M135.6,43.7l3-1.5l9,18.1c1.1,2.1,1.8,3.5,2.1,4c0.7,1.1,1.6,1.9,2.5,2.4c1,0.5,2.1,0.8,3.5,0.7
			s2.7-0.3,3.8-0.9c1-0.5,1.9-1.2,2.6-2.1c0.7-0.9,1.2-1.9,1.4-2.9c0.2-1.1,0.2-2.2,0-3.4c-0.2-0.9-0.9-2.5-2-4.8l-9-18.1l3-1.5
			l9.1,18.1c1.3,2.7,2.1,5,2.4,6.9c0.3,1.9,0,3.9-1,5.9c-1,2-2.5,3.5-4.8,4.7c-2.4,1.2-4.8,1.6-7.1,1.4c-2.3-0.3-4.2-1.3-5.7-2.9
			c-1-1-2.2-3-3.7-6L135.6,43.7z"/>
		<path class="st2" d="M180.6,25l25.6,26.8l-3.4,1.2l-8.5-8.8l-13.7,4.6L179,60.9l-3.5,1.2l4.3-36.8L180.6,25z M182.4,31.8
			l-1.6,13.4l10.9-3.7L182.4,31.8z"/>
	</g>
	<g>
		<path class="st2" d="M236.9,14.4l6.7,0c3.8,0,6.4,0.1,7.8,0.5c1.9,0.4,3.5,1.4,4.7,2.9c1.2,1.5,1.9,3.3,1.9,5.5
			c0,2.2-0.6,4.1-1.7,5.6c-1.2,1.5-2.8,2.4-4.9,2.9c-1.5,0.3-4.4,0.6-8.6,0.6l-2.4,0l0.1,15.6l-3.3,0L236.9,14.4z M240.3,17.7
			l0.1,11.4l5.7,0.1c2.3,0,3.9-0.2,5-0.7c1.1-0.4,1.9-1.1,2.5-2.1c0.6-0.9,0.9-2,0.9-3.1c0-1.1-0.3-2.1-0.9-3.1
			c-0.6-0.9-1.4-1.6-2.4-2c-1-0.4-2.6-0.6-4.9-0.6L240.3,17.7z"/>
		<path class="st2" d="M282.3,15.8l11.6,35.1l-3.6-0.4L286.4,39L272,37.2l-6.5,10.4l-3.7-0.5l19.6-31.4L282.3,15.8z M281.1,22.9
			l-7.2,11.4l11.4,1.3L281.1,22.9z"/>
		<polygon class="st2" points="299,52.1 307.8,19.8 308.5,20 323.3,50.6 330,25.8 333.2,26.7 324.4,59 323.7,58.8 309,28.6 
			302.3,53 		"/>
		<polygon class="st2" points="345.1,31.3 362.8,38.8 361.5,41.9 346.9,35.7 342.8,45.3 357.3,51.5 356,54.5 341.5,48.3 336.4,60.4 
			350.9,66.6 349.6,69.6 332,62.2 		"/>
		<polygon class="st2" points="371,43.5 374,45.1 359.2,71.6 370.4,77.9 368.9,80.7 354.7,72.8 		"/>
		<polygon class="st2" points="392,56.1 394.7,58 375.5,85.5 372.8,83.6 		"/>
		<polygon class="st2" points="398.6,64.5 400.7,62 414.8,73.8 412.7,76.3 407,71.5 387.6,94.8 385,92.6 404.3,69.3 		"/>
		<path class="st2" d="M431.9,90.3L417,124.1l-2.4-2.7l4.8-11.2l-9.5-10.8l-11.7,3.3l-2.5-2.8l35.6-10.2L431.9,90.3z M426.3,94.7
			l-12.9,3.7l7.5,8.6L426.3,94.7z"/>
	</g>
	<path class="st2" d="M156.9,418.2l-3.3,0.5c-0.3-2.4-1.2-4.5-2.5-6.3c-1.3-1.8-3-3.3-5.2-4.5c-2.3-1.3-4.8-1.9-7.4-1.9
		c-2.6,0-5,0.7-7.1,2c-2.1,1.3-3.9,3.1-5.2,5.5c-2,3.6-2.4,7.3-1.3,11c1.1,3.7,3.6,6.7,7.3,8.7c4.1,2.3,8.4,2.5,13,0.8l1.3,3
		c-2.5,1.1-5.1,1.5-7.8,1.3c-2.7-0.2-5.5-1-8.2-2.5c-5.1-2.8-8.2-6.8-9.3-11.8c-0.9-4.2-0.3-8.4,2-12.5c2.3-4.3,5.8-7.1,10.5-8.4
		s9.2-0.7,13.7,1.8c2.7,1.5,4.9,3.4,6.6,5.7C155.6,412.9,156.5,415.4,156.9,418.2L156.9,418.2z M176.6,418.6
		c4.7,1.8,8.2,4.8,10.2,9.2c2,4.3,2.2,8.9,0.4,13.5c-1.7,4.6-4.7,7.9-9.1,9.9c-4.4,2-8.9,2.2-13.4,0.5c-4.7-1.7-8-4.8-10-9.2
		c-2-4.4-2.2-8.8-0.5-13.4c1.1-3,2.9-5.6,5.3-7.6c2.4-2,5.2-3.3,8.2-3.8C170.7,417.3,173.7,417.5,176.6,418.6L176.6,418.6z
		 M175.6,421.8c-2.3-0.9-4.7-1.1-7.3-0.6c-2.5,0.4-4.7,1.5-6.7,3.1c-1.9,1.6-3.3,3.7-4.3,6.2c-1.4,3.7-1.3,7.4,0.4,10.9
		c1.6,3.5,4.3,6,7.9,7.3c2.5,0.9,4.9,1.1,7.4,0.7c2.5-0.4,4.7-1.4,6.6-3.1c1.9-1.6,3.3-3.7,4.3-6.2c0.9-2.5,1.2-5,0.7-7.4
		c-0.4-2.4-1.5-4.7-3.1-6.7C180,424.1,178,422.6,175.6,421.8L175.6,421.8z M188,458.7l7.1-32.8l0.7,0.1l16.3,29.8l5.4-25.1l3.3,0.7
		l-7.1,32.8l-0.7-0.2l-16.2-29.5l-5.4,24.8L188,458.7z M271.8,432.8l18,32.3l-3.6,0.3l-6-10.6l-14.5,1.1l-4.4,11.4l-3.7,0.3
		l13.4-34.6L271.8,432.8z M271.9,439.8l-4.9,12.6l11.5-0.8L271.9,439.8z M293.5,464.4l-2.7-33.7l0.7-0.1l19.2,23.9l7.3-29.8l0.5-0.1
		l11.9,31.7l-3.1,0.7l-8.5-22.7l-6.4,26l-0.9,0.2l-16.9-21l2.1,24.3L293.5,464.4z M337.7,416c4.6-2,9.2-2.1,13.7-0.3
		c4.5,1.8,7.7,4.9,9.6,9.5c1.9,4.5,2,9,0.2,13.5c-1.8,4.5-5,7.7-9.4,9.6c-4.6,1.9-9.1,2-13.6,0.3c-4.5-1.8-7.7-4.9-9.6-9.3
		c-1.3-3-1.7-6-1.4-9.2c0.3-3.1,1.5-6,3.3-8.4C332.5,419.1,334.8,417.2,337.7,416L337.7,416z M339.1,418.9c-2.3,1-4.2,2.5-5.7,4.5
		c-1.5,2.1-2.4,4.3-2.7,6.8c-0.3,2.5,0.1,5,1.2,7.5c1.6,3.7,4.1,6.2,7.8,7.6c3.6,1.4,7.2,1.4,10.8-0.1c2.4-1,4.3-2.5,5.9-4.6
		c1.5-2,2.4-4.3,2.7-6.8c0.3-2.5-0.1-5-1.2-7.4c-1.1-2.5-2.6-4.4-4.5-5.9c-2-1.5-4.3-2.4-6.8-2.7
		C343.9,417.6,341.4,417.9,339.1,418.9L339.1,418.9z M356.3,408.3l5.7-3.5c3.2-1.9,5.4-3.1,6.7-3.5c1.9-0.7,3.8-0.7,5.7,0
		c1.8,0.6,3.3,1.9,4.5,3.8c0.9,1.5,1.4,3.1,1.4,4.8c0,1.6-0.5,3.1-1.5,4.6c-1,1.4-2.7,2.9-5.1,4.3l18.4,7.1l-3.5,2.1l-18.4-7.1
		l-1.6,1l8.1,13.4l-2.9,1.7L356.3,408.3z M360.9,409.4l5.9,9.7l5-2.9c1.9-1.1,3.2-2.2,3.9-3.1c0.7-0.9,1.1-1.9,1.1-3
		c0-1.1-0.3-2.2-0.9-3.1c-0.6-1-1.4-1.7-2.4-2.1c-1-0.5-2-0.6-3.1-0.5c-1.1,0.2-2.5,0.9-4.5,2.1L360.9,409.4z"/>
	<path class="st2" d="M156.9,418.2l-3.3,0.5c-1.5-13.3-21.3-17.6-27.4-5.2c-7.1,11.8,6.8,25.8,19,20.5l1.3,3
		c-14.9,6.6-32.5-11-23.3-25.5C130.6,396.4,155.1,402,156.9,418.2L156.9,418.2z M176.6,418.6c22,7.7,9.7,41.2-12,33.1
		C142.9,444,155.1,410.8,176.6,418.6z M175.6,421.8c-17.1-6.6-27.4,20.8-10,26.9C182.9,455.5,193.1,427.9,175.6,421.8L175.6,421.8z
		 M188,458.7l7.1-32.8l0.7,0.1l16.3,29.8l5.4-25.1l3.3,0.7l-7.1,32.8l-0.7-0.2l-16.2-29.5l-5.4,24.8L188,458.7z M271.8,432.8
		l18,32.3l-3.6,0.3l-6-10.6l-14.5,1.1l-4.4,11.4l-3.7,0.3l13.4-34.6L271.8,432.8z M271.9,439.8l-4.9,12.6l11.5-0.8L271.9,439.8z
		 M293.5,464.4l-2.7-33.7l0.7-0.1l19.2,23.9l7.3-29.8l0.5-0.1l11.9,31.7l-3.1,0.7l-8.5-22.7l-6.4,26l-0.9,0.2l-16.9-21l2.1,24.3
		L293.5,464.4z M337.7,416c21.3-9.6,35.4,23.2,14.1,32.2C330.7,457.5,316.7,425.1,337.7,416z M339.1,418.9
		c-16.9,7-5.5,33.9,11.3,26.4C367.7,438.3,356,411.3,339.1,418.9L339.1,418.9z M356.3,408.3c3-1.7,10.3-6.4,12.4-7
		c11.4-3.5,16,13.1,4.9,17.5l18.4,7.1l-3.5,2.1l-18.4-7.1l-1.6,1l8.1,13.4l-2.9,1.7L356.3,408.3z M360.9,409.4l5.9,9.7
		c4.3-2.7,12.9-6.1,9.1-12.2C372.1,400.8,365.3,406.9,360.9,409.4z"/>
	<path class="st3" d="M190,206.6c3.1,0,1.6,0.2,3.3,0.6c0,3.4-2.3,6.7-3.9,9.4l-10.5,16.1c-0.7,1-1.1,1.8-1.8,2.7
		c-4.9,6.6-11.2,17.2-6.7,26c0.4,0.8,1.1,1.9,1.7,2.5c5.6,5.1,11.8-4.7,14.9-9.2c4.4-6.3,12.9-19.5,18.7-25.5l5.2-5.8
		c1.7-1.9,3.8-3.8,5.6-5.6l15.5-14.8c4.5-3.7,8.4-8.2,11.5-13.3c8.2-13.5,7-24.9,6.3-39.7c-0.3-5.2-1.2-11.6-0.9-17.3
		c0.1-1.4,0.3-2.1,0.3-3.9l1.2-24.2c0.2-2.8,0.2-5.4,0.3-8.2l1.2-15.8c0.6-4.6-1.5-2.6-5.1-2.7c-7.1,0-16.2,1.1-22.4,3
		c-4.6,1.4-10.7,3.7-14.4,6.8c-0.5,0.4-0.6,0.6-1.1,1c-1.5,1.1-1.9,1.8-3.1,3.3c-6.9,9.2-1.2,18.8-2.4,26.1
		c-0.8,4.9-0.2,6.6-1.8,14.5c-1.9,9.2-4.4,14.9-11,22l-3.9,4.2c-1.4,1.4-2.7,2.6-4.1,4.1l-26.2,23.2c-2.5,2.5-6,5.5-8.1,8.2
		c-1.3,1.7-2.2,2.9-3.3,4.9c-0.9,1.7-2,3.7-2.7,5.5c-6.1,14.3-12.5,36-13.8,52.2c-0.1,1.2,0,2.7,0,3.9c-0.1,1.6-0.3,2.1-0.3,3.9
		l-0.6,11.5c0,1.3,0.1,2.9,0,4.2c-0.5,4.1-1.1,31.2,3.1,31.2c3.5,0,5.5-0.9,7.6-3.6c6.9-8.5,6.6-30.5,9.2-41.9
		c1.4-6,2.9-10.5,4.7-15.9c0.8-2.3,1.9-4.9,2.9-7.1c1.2-2.5,2-4.7,3.4-6.9c3-5,4.5-7.6,8.1-12.5c2.3-3,2.8-3.3,4.6-5.4l5.2-5.1
		C179.5,210.6,185.3,206.6,190,206.6L190,206.6z"/>
	<path class="st3" d="M387.3,295.6c0-4.1,0.1-17.4-0.4-20.5l-0.8-14.6c0-15.4-9.6-48.9-16.7-61.1c-1.7-3-4.4-6.4-6.9-8.9
		c-0.7-0.7-1.1-1.1-1.8-1.8c-0.9-0.9-1.2-1.1-2.1-1.8c-2.3-1.9-5-4.8-8.3-7.4l-10.3-9c-7.6-6.4-20.1-18.3-24-26.8
		c-3.7-8.2-6-23.5-4.5-34.2c0.9-6.3,1.6-11.3-2.7-17c-0.7-0.9-1.5-1.9-2.2-2.6l-5.4-4c-10.2-6.2-25-7.7-38.9-7.7
		c0.8,3.4,0.7,9,0.9,12.7c0.1,1.3,0.2,1.1,0.3,2.4c0.1,0.9-0.1,1.8,0,2.7l0.9,12.7c0.1,3.6,0.2,7.3,0.6,10.6
		c0.2,1.7-0.1,3.7,0.1,5.4c0.2,1.7,0.3,3.1,0.3,5.2c0,1.7-0.2,3.6,0.1,5.4c0.4,3.1-0.8,14.6-1,17.9c-0.9,17.7,0.2,31.4,12.5,44.7
		c3.7,4,8.6,7.9,12.6,12c1,1,1.8,1.5,2.9,2.5c7.3,7.4,14.7,14.6,21.1,22.8c1.6,2.1,3.2,4.2,4.8,6.4c4.3,5.7,14.4,23.9,20.3,23.9
		c3.1,0,5-2.5,5.9-5c3.3-9.8-2.4-17.7-6.8-24.4c-3.2-4.7-16.7-23.4-16.7-28.1c0-3,11.3-0.8,19.6,7.6c5.8,5.8,6.7,7,11.4,14
		c4.5,6.7,4.2,7.1,7.4,13.2c3.1,6.1,6,16.3,7.6,23c2.7,11.5,2.4,46,15.8,46h1.2C386.9,311.6,387.3,299.4,387.3,295.6L387.3,295.6z"
		/>
	<path class="st4" d="M259.1,391.4c-45.5,0-82.3-35.9-82.3-80.2c0-44.3,36.9-80.3,82.3-80.3s82.3,35.9,82.3,80.3
		C341.4,355.4,304.5,391.4,259.1,391.4L259.1,391.4z"/>
	<path class="st4" d="M349,337.2c-4,0-7.7-1.9-10.4-5c1.9-6.7,2.9-13.7,2.9-21c0-3.1-0.2-6.2-0.5-9.2c2.3-1.8,5.1-2.8,8.1-2.8
		c8.5,0,15.4,8.5,15.4,19C364.3,328.7,357.4,337.2,349,337.2L349,337.2z"/>
	<path class="st5" d="M153.5,312.6c-4.2,18.1,13,33.6,25.9,18.6c41.2-31.1,85.7-58,134.4-80.1c-51.8-42.9-128.2-15.5-136.6,51.6
		C166.9,293.8,156.2,301.9,153.5,312.6L153.5,312.6z"/>
	<path class="st6" d="M258.7,382.6c-40.2,0-72.9-32.3-72.9-72.1s32.6-72.1,72.9-72.1c40.3,0,72.9,32.3,72.9,72.1
		S299,382.6,258.7,382.6L258.7,382.6z"/>
	<path class="st7" d="M191.9,339.3c24.7-26.1,58.6-51.9,121.7-76.2C252,197.3,160.8,269.6,191.9,339.3L191.9,339.3z"/>
</g>
</svg>
