<?xml version="1.0" encoding="utf-8"?>
<!-- Generator: Adobe Illustrator 24.0.2, SVG Export Plug-In . SVG Version: 6.00 Build 0)  -->
<svg version="1.1" id="Capa_1" xmlns="http://www.w3.org/2000/svg" xmlns:xlink="http://www.w3.org/1999/xlink" x="0px" y="0px"
	 viewBox="0 0 512 512" style="enable-background:new 0 0 512 512;" xml:space="preserve">
<style type="text/css">
	.st0{fill:#FFFFFF;}
</style>
<path class="st0" d="M456.6,407.5l-11.5,19.2c-44.8,44.8-162.8-0.6-263.6-101.4C80.7,224.6,35.3,106.6,80.1,61.8l19.2-11.5
	c17.4-10.4,40-4.8,50.4,12.6l27.2,45.3c8.7,14.5,6.4,32.9-5.5,44.9c-16.8,16.8-16.8,44,0,60.8L293,335.5c16.8,16.8,44,16.8,60.8,0
	c11.9-11.9,30.4-14.2,44.9-5.5l45.3,27.2C461.4,367.6,467,390.1,456.6,407.5z"/>
</svg>
